ISO-10303-21;
HEADER;
FILE_DESCRIPTION(('ViewDefinition [CoordinationView, QuantityTakeOffAddOnView]','RevitIdentifiers [ContentGUID: ea4c8d00-0a93-4f62-9761-b085dfacd43e, VersionGUID: 681ebdda-11d6-4105-8004-fb7a40c2b7ee, NumberOfSaves: 0]'),'2;1');
FILE_NAME('Project1-b6592950-6588-463c-927c-f80ff22c7997.ifc','2026-02-02T19:47:17+01:00',(''),(''),'ODA SDAI 24.12','Autodesk Revit 25.4.41.14 (ENG) - IFC 25.4.41.14','');
FILE_SCHEMA(('IFC2X3'));
ENDSEC;

DATA;
#1=IFCORGANIZATION($,'Autodesk Revit 2025 (ENG)',$,$,$);
#2=IFCAPPLICATION(#1,'2025','Autodesk Revit 2025 (ENG)','Revit');
#3=IFCCARTESIANPOINT((0.,0.,0.));
#4=IFCCARTESIANPOINT((0.,0.));
#5=IFCDIRECTION((1.,0.,0.));
#6=IFCDIRECTION((-1.,0.,0.));
#7=IFCDIRECTION((0.,1.,0.));
#8=IFCDIRECTION((0.,-1.,0.));
#9=IFCDIRECTION((0.,0.,1.));
#10=IFCDIRECTION((0.,0.,-1.));
#11=IFCDIRECTION((1.,0.));
#12=IFCDIRECTION((-1.,0.));
#13=IFCDIRECTION((0.,1.));
#14=IFCDIRECTION((0.,-1.));
#15=IFCPERSON($,'','R.Manintveld',$,$,$,$,$);
#16=IFCORGANIZATION($,'','',$,$);
#17=IFCPERSONANDORGANIZATION(#15,#16,$);
#18=IFCOWNERHISTORY(#17,#2,$,.NOCHANGE.,$,$,$,1770058037);
#19=IFCSIUNIT(*,.LENGTHUNIT.,.MILLI.,.METRE.);
#20=IFCSIUNIT(*,.AREAUNIT.,$,.SQUARE_METRE.);
#21=IFCSIUNIT(*,.VOLUMEUNIT.,$,.CUBIC_METRE.);
#22=IFCAXIS2PLACEMENT3D(#3,$,$);
#23=IFCDIRECTION((6.123233995736766E-017,1.));
#24=IFCGEOMETRICREPRESENTATIONCONTEXT($,'Model',3,0.01,#22,#23);
#25=IFCGEOMETRICREPRESENTATIONSUBCONTEXT('Axis','Model',*,*,*,*,#24,$,.GRAPH_VIEW.,$);
#26=IFCGEOMETRICREPRESENTATIONSUBCONTEXT('Body','Model',*,*,*,*,#24,$,.MODEL_VIEW.,$);
#27=IFCGEOMETRICREPRESENTATIONSUBCONTEXT('Box','Model',*,*,*,*,#24,$,.MODEL_VIEW.,$);
#28=IFCGEOMETRICREPRESENTATIONSUBCONTEXT('FootPrint','Model',*,*,*,*,#24,$,.MODEL_VIEW.,$);
#29=IFCGEOMETRICREPRESENTATIONCONTEXT($,'Plan',3,0.01,#22,#23);
#30=IFCGEOMETRICREPRESENTATIONSUBCONTEXT('Annotation','Plan',*,*,*,*,#29,0.01,.PLAN_VIEW.,$);
#31=IFCPROJECT('3gJ8q02fDFOfTXi8KWKolE',#18,'Project Number',$,$,'Project Name','Project Status',(#24,#29),#475);
#32=IFCCLASSIFICATION('CSI (Construction Specifications Institute)','1998',$,'Uniformat');
#33=IFCAXIS2PLACEMENT3D(#3,$,$);
#34=IFCLOCALPLACEMENT(#45,#33);
#35=IFCPOSTALADDRESS($,$,$,$,('Enter address here'),$,'London','London','','United Kingdom');
#36=IFCBUILDING('3gJ8q02fDFOfTXi8KWKolF',#18,'',$,$,#34,$,'',.ELEMENT.,$,$,#35);
#37=IFCAXIS2PLACEMENT3D(#3,$,$);
#38=IFCLOCALPLACEMENT(#34,#37);
#39=IFCBUILDINGSTOREY('3Zu5Bv0LOHrPC10026FoQQ',#18,'Level 0',$,'Level:Circle Head - Project Datum',#38,$,'Level 0',.ELEMENT.,0.);
#40=IFCCARTESIANPOINT((0.,0.,4000.));
#41=IFCAXIS2PLACEMENT3D(#40,$,$);
#42=IFCLOCALPLACEMENT(#34,#41);
#43=IFCBUILDINGSTOREY('15Z0v90RiHrPC20026FoKR',#18,'Level 1',$,'Level:Circle Head - Project Datum',#42,$,'Level 1',.ELEMENT.,3999.9999999999995);
#44=IFCAXIS2PLACEMENT3D(#3,$,$);
#45=IFCLOCALPLACEMENT($,#44);
#46=IFCSITE('3gJ8q02fDFOfTXi8KWKolC',#18,'Default',$,$,#45,$,$,.ELEMENT.,(51,30,23,112487),(0,-7,-37,-956022),0.,$,$);
#47=IFCPROPERTYSINGLEVALUE('Category',$,IFCLABEL('Project Information'),$);
#48=IFCPROPERTYSINGLEVALUE('Client Name',$,IFCTEXT('Owner'),$);
#49=IFCPROPERTYSINGLEVALUE('Project Address',$,IFCTEXT('Enter address here'),$);
#50=IFCPROPERTYSINGLEVALUE('Project Issue Date',$,IFCTEXT('Issue Date'),$);
#51=IFCPROPERTYSINGLEVALUE('Project Name',$,IFCTEXT('Project Name'),$);
#52=IFCPROPERTYSINGLEVALUE('Project Number',$,IFCTEXT('Project Number'),$);
#53=IFCPROPERTYSINGLEVALUE('Project Status',$,IFCTEXT('Project Status'),$);
#54=IFCPROPERTYSET('1XcKzrzPXqIiAb_DDiV8VI',#18,'Other',$,(#47,#48,#49,#50,#51,#52,#53));
#55=IFCCARTESIANPOINT((-4876.2113861563548,4761.5418977894988,0.));
#56=IFCAXIS2PLACEMENT3D(#55,$,$);
#57=IFCLOCALPLACEMENT(#38,#56);
#58=IFCCARTESIANPOINT((9500.,0.));
#59=IFCPOLYLINE((#4,#58));
#60=IFCSHAPEREPRESENTATION(#25,'Axis','Curve2D',(#59));
#61=IFCPRODUCTDEFINITIONSHAPE($,$,(#60,#72));
#62=IFCCARTESIANPOINT((4750.,-2.7000623958883807E-013));
#63=IFCAXIS2PLACEMENT2D(#62,#12);
#64=IFCRECTANGLEPROFILEDEF(.AREA.,$,#63,9500.,289.99999999999955);
#65=IFCAXIS2PLACEMENT3D(#3,$,$);
#66=IFCEXTRUDEDAREASOLID(#64,#65,#9,7999.9999999999991);
#67=IFCCOLOURRGB($,0.66666666666666663,0.39215686274509803,0.41176470588235292);
#68=IFCSURFACESTYLERENDERING(#67,0.,$,$,$,$,IFCNORMALISEDRATIOMEASURE(0.5),IFCSPECULAREXPONENT(128.),.NOTDEFINED.);
#69=IFCSURFACESTYLE('Brick, Common',.BOTH.,(#68));
#70=IFCPRESENTATIONSTYLEASSIGNMENT((#69));
#71=IFCSTYLEDITEM(#66,(#70),$);
#72=IFCSHAPEREPRESENTATION(#26,'Body','SweptSolid',(#66));
#73=IFCWALLSTANDARDCASE('1e7htQ4TP11O04_tf0ndmT',#18,'Basic Wall:Wall-Ext_102Bwk-75Ins-100LBlk-12P:314355',$,'Basic Wall:Wall-Ext_102Bwk-75Ins-100LBlk-12P',#57,#61,'314355');
#74=IFCQUANTITYLENGTH('Height',$,$,7999.9999999999991);
#75=IFCQUANTITYLENGTH('Length',$,$,9500.);
#76=IFCQUANTITYLENGTH('Width',$,$,290.);
#77=IFCQUANTITYAREA('GrossFootprintArea',$,$,2.7549999999999963);
#78=IFCQUANTITYVOLUME('GrossVolume',$,$,22.039999999999999);
#79=IFCQUANTITYAREA('GrossSideArea',$,$,76.);
#80=IFCQUANTITYAREA('NetSideArea',$,$,76.);
#81=IFCQUANTITYVOLUME('NetVolume',$,$,22.04000000000001);
#82=IFCELEMENTQUANTITY('24bD5joKZyAiEQIhiOP3OP',#18,'BaseQuantities',$,$,(#74,#75,#76,#77,#78,#79,#80,#81));
#83=IFCRELDEFINESBYPROPERTIES('16xSEZxKC_YrKMWHoHuCd4',#18,$,$,(#73),#82);
#84=IFCMATERIAL('Brick, Common');
#85=IFCCOLOURRGB($,0.,0.,0.);
#86=IFCDRAUGHTINGPREDEFINEDCURVEFONT('continuous');
#87=IFCCURVESTYLE($,#86,$,#85);
#88=IFCFILLAREASTYLEHATCHING(#87,IFCPOSITIVELENGTHMEASURE(355.59999999999997),$,#4,45.);
#89=IFCCURVESTYLE($,#86,$,#85);
#90=IFCCARTESIANPOINT((0.,381.));
#91=IFCFILLAREASTYLEHATCHING(#89,IFCPOSITIVELENGTHMEASURE(355.59999999999997),$,#90,45.);
#92=IFCFILLAREASTYLE('Brickwork',(#88,#91));
#93=IFCPRESENTATIONSTYLEASSIGNMENT((#69,#92));
#94=IFCSTYLEDITEM($,(#93),$);
#95=IFCSTYLEDREPRESENTATION(#24,'Style','Material and Cut Pattern',(#94));
#96=IFCMATERIALDEFINITIONREPRESENTATION($,$,(#95),#84);
#97=IFCMATERIAL('Fiberglass Batt');
#98=IFCCOLOURRGB($,0.49803921568627452,0.49803921568627452,0.49803921568627452);
#99=IFCSURFACESTYLERENDERING(#98,0.,$,$,$,$,IFCNORMALISEDRATIOMEASURE(0.5),IFCSPECULAREXPONENT(64.),.NOTDEFINED.);
#100=IFCSURFACESTYLE('Fiberglass Batt',.BOTH.,(#99));
#101=IFCPRESENTATIONSTYLEASSIGNMENT((#100));
#102=IFCSTYLEDITEM($,(#101),$);
#103=IFCSTYLEDREPRESENTATION(#24,'Style','Material',(#102));
#104=IFCMATERIALDEFINITIONREPRESENTATION($,$,(#103),#97);
#105=IFCMATERIAL('Concrete Masonry Units _Low Density');
#106=IFCCOLOURRGB($,0.70980392156862748,0.70980392156862748,0.70980392156862748);
#107=IFCSURFACESTYLERENDERING(#106,0.,$,$,$,$,IFCNORMALISEDRATIOMEASURE(0.5),IFCSPECULAREXPONENT(64.),.NOTDEFINED.);
#108=IFCSURFACESTYLE('Concrete Masonry Units _Low Density',.BOTH.,(#107));
#109=IFCCOLOURRGB($,0.,0.,0.);
#110=IFCCURVESTYLE($,#86,$,#109);
#111=IFCFILLAREASTYLEHATCHING(#110,IFCPOSITIVELENGTHMEASURE(400.),$,#4,45.);
#112=IFCCURVESTYLE($,#86,$,#109);
#113=IFCFILLAREASTYLEHATCHING(#112,IFCPOSITIVELENGTHMEASURE(400.),$,#4,135.);
#114=IFCFILLAREASTYLE('Blockwork (low/medium density)',(#111,#113));
#115=IFCPRESENTATIONSTYLEASSIGNMENT((#108,#114));
#116=IFCSTYLEDITEM($,(#115),$);
#117=IFCSTYLEDREPRESENTATION(#24,'Style','Material and Cut Pattern',(#116));
#118=IFCMATERIALDEFINITIONREPRESENTATION($,$,(#117),#105);
#119=IFCMATERIAL('Plaster');
#120=IFCCOLOURRGB($,0.97647058823529409,0.97647058823529409,0.97647058823529409);
#121=IFCSURFACESTYLERENDERING(#120,0.,$,$,$,$,IFCNORMALISEDRATIOMEASURE(0.5),IFCSPECULAREXPONENT(128.),.NOTDEFINED.);
#122=IFCSURFACESTYLE('Plaster',.BOTH.,(#121));
#123=IFCCOLOURRGB($,0.,0.,0.);
#124=IFCCURVESTYLEFONTPATTERN(33.527999999999999,576.07199999999989);
#125=IFCCURVESTYLEFONTPATTERN(33.527999999999999,576.07199999999989);
#126=IFCCURVESTYLEFONTPATTERN(33.527999999999999,1185.6719999999998);
#127=IFCCURVESTYLEFONTPATTERN(33.527999999999999,576.07199999999989);
#128=IFCCURVESTYLEFONTPATTERN(33.527999999999999,372.87199999999996);
#129=IFCCURVESTYLEFONTPATTERN(33.527999999999999,982.47200000000009);
#130=IFCCURVESTYLEFONT('Sand:1',(#124,#125,#126,#127,#128,#129));
#131=IFCCURVESTYLE('Sand:1',#130,$,#123);
#132=IFCCARTESIANPOINT((812.79999999999995,0.));
#133=IFCFILLAREASTYLEHATCHING(#131,IFCPOSITIVELENGTHMEASURE(203.19999999999999),$,#132,0.);
#134=IFCCURVESTYLEFONTPATTERN(33.527999999999999,576.07199999999989);
#135=IFCCURVESTYLEFONTPATTERN(33.527999999999999,576.07199999999989);
#136=IFCCURVESTYLEFONTPATTERN(33.527999999999999,1185.6719999999998);
#137=IFCCURVESTYLEFONTPATTERN(33.527999999999999,576.07199999999989);
#138=IFCCURVESTYLEFONTPATTERN(33.527999999999999,372.87199999999996);
#139=IFCCURVESTYLEFONTPATTERN(33.527999999999999,982.47200000000009);
#140=IFCCURVESTYLEFONT('Sand:2',(#134,#135,#136,#137,#138,#139));
#141=IFCCURVESTYLE('Sand:2',#140,$,#123);
#142=IFCCARTESIANPOINT((-101.5999999999986,805.50544819599259));
#143=IFCFILLAREASTYLEHATCHING(#141,IFCPOSITIVELENGTHMEASURE(203.19999999999999),$,#142,120.00000000000001);
#144=IFCCURVESTYLEFONTPATTERN(33.527999999999999,576.07199999999989);
#145=IFCCURVESTYLEFONTPATTERN(33.527999999999999,576.07199999999989);
#146=IFCCURVESTYLEFONTPATTERN(33.527999999999999,1185.6719999999998);
#147=IFCCURVESTYLEFONTPATTERN(33.527999999999999,576.07199999999989);
#148=IFCCURVESTYLEFONTPATTERN(33.527999999999999,372.87199999999996);
#149=IFCCURVESTYLEFONTPATTERN(33.527999999999999,982.47200000000009);
#150=IFCCURVESTYLEFONT('Sand:3',(#144,#145,#146,#147,#148,#149));
#151=IFCCURVESTYLE('Sand:3',#150,$,#123);
#152=IFCCARTESIANPOINT((-0.,-195.90544819599006));
#153=IFCFILLAREASTYLEHATCHING(#151,IFCPOSITIVELENGTHMEASURE(203.19999999999999),$,#152,240.00000000000003);
#154=IFCFILLAREASTYLE('Sand',(#133,#143,#153));
#155=IFCPRESENTATIONSTYLEASSIGNMENT((#122,#154));
#156=IFCSTYLEDITEM($,(#155),$);
#157=IFCSTYLEDREPRESENTATION(#24,'Style','Material and Cut Pattern',(#156));
#158=IFCMATERIALDEFINITIONREPRESENTATION($,$,(#157),#119);
#159=IFCMATERIALLAYER(#84,102.5,$);
#160=IFCMATERIALLAYER(#97,75.,$);
#161=IFCMATERIALLAYER(#105,100.,$);
#162=IFCMATERIALLAYER(#119,12.5,$);
#163=IFCMATERIALLAYERSET((#159,#160,#161,#162),'Basic Wall:Wall-Ext_102Bwk-75Ins-100LBlk-12P');
#164=IFCMATERIALLAYERSETUSAGE(#163,.AXIS2.,.NEGATIVE.,145.);
#165=IFCWALLTYPE('2ru7YPT4T9MuTpOS4FRzxX',#18,'Basic Wall:Wall-Ext_102Bwk-75Ins-100LBlk-12P',$,$,(#234,#235,#236,#237,#238,#239,#241),$,'45419',$,.STANDARD.);
#166=IFCPROPERTYSINGLEVALUE('Reference',$,IFCIDENTIFIER('Wall-Ext_102Bwk-75Ins-100LBlk-12P'),$);
#167=IFCPROPERTYSET('1K3tsnKgZcPSV3t_OUqzlo',#18,'Pset_QuantityTakeOff',$,(#166));
#168=IFCPROPERTYSINGLEVALUE('Reference',$,IFCLABEL('Wall-Ext_102Bwk-75Ins-100LBlk-12P'),$);
#169=IFCPROPERTYSET('3zAUdqNzuJSJ4njpM_hlut',#18,'Pset_ReinforcementBarPitchOfWall',$,(#168));
#170=IFCPROPERTYSINGLEVALUE('IsExternal',$,IFCBOOLEAN(.T.),$);
#171=IFCPROPERTYSINGLEVALUE('ExtendToStructure',$,IFCBOOLEAN(.F.),$);
#172=IFCPROPERTYSINGLEVALUE('LoadBearing',$,IFCBOOLEAN(.F.),$);
#173=IFCPROPERTYSET('0XHMxgTtzxIso77QUPOSUV',#18,'Pset_WallCommon',$,(#166,#170,#171,#172));
#174=IFCRELDEFINESBYPROPERTIES('2qjtVI1XiS31KPbwefE$Yg',#18,$,$,(#73),#167);
#175=IFCRELDEFINESBYPROPERTIES('2Iaf4SPZsONKEr1RV$fwkk',#18,$,$,(#73),#169);
#176=IFCRELDEFINESBYPROPERTIES('1JW5wgLNq3E6ivB2VWBsnn',#18,$,$,(#73),#173);
#177=IFCPROPERTYSINGLEVALUE('Category',$,IFCLABEL('Walls'),$);
#178=IFCPROPERTYSINGLEVALUE('Family',$,IFCLABEL('Basic Wall'),$);
#179=IFCPROPERTYSINGLEVALUE('Family and Type',$,IFCLABEL('Basic Wall: Wall-Ext_102Bwk-75Ins-100LBlk-12P'),$);
#180=IFCPROPERTYSINGLEVALUE('Type',$,IFCLABEL('Wall-Ext_102Bwk-75Ins-100LBlk-12P'),$);
#181=IFCPROPERTYSINGLEVALUE('Type Id',$,IFCLABEL('45419'),$);
#182=IFCPROPERTYSINGLEVALUE('Base Constraint',$,IFCLABEL('Level 0'),$);
#183=IFCPROPERTYSINGLEVALUE('Base Extension Distance',$,IFCLENGTHMEASURE(0.),$);
#184=IFCPROPERTYSINGLEVALUE('Base is Attached',$,IFCBOOLEAN(.F.),$);
#185=IFCPROPERTYSINGLEVALUE('Base Offset',$,IFCLENGTHMEASURE(0.),$);
#186=IFCPROPERTYSINGLEVALUE('Location Line',$,IFCIDENTIFIER('Wall Centerline'),$);
#187=IFCPROPERTYSINGLEVALUE('Related to Mass',$,IFCBOOLEAN(.F.),$);
#188=IFCPROPERTYSINGLEVALUE('Room Bounding',$,IFCBOOLEAN(.T.),$);
#189=IFCPROPERTYSINGLEVALUE('Top Extension Distance',$,IFCLENGTHMEASURE(0.),$);
#190=IFCPROPERTYSINGLEVALUE('Top is Attached',$,IFCBOOLEAN(.F.),$);
#191=IFCPROPERTYSINGLEVALUE('Top Offset',$,IFCLENGTHMEASURE(0.),$);
#192=IFCPROPERTYSINGLEVALUE('Unconnected Height',$,IFCLENGTHMEASURE(7999.9999999999991),$);
#193=IFCPROPERTYSINGLEVALUE('Area',$,IFCAREAMEASURE(76.),$);
#194=IFCPROPERTYSINGLEVALUE('Length',$,IFCLENGTHMEASURE(9500.),$);
#195=IFCPROPERTYSINGLEVALUE('Volume',$,IFCVOLUMEMEASURE(22.04000000000001),$);
#196=IFCPROPERTYSINGLEVALUE('Phase Created',$,IFCLABEL('New Construction'),$);
#197=IFCPROPERTYSINGLEVALUE('Structural',$,IFCBOOLEAN(.F.),$);
#198=IFCPROPERTYSINGLEVALUE('Structural Usage',$,IFCIDENTIFIER('Non-bearing'),$);
#199=IFCPROPERTYSINGLEVALUE('Cross-Section',$,IFCIDENTIFIER('Vertical'),$);
#200=IFCPROPERTYSINGLEVALUE('Family Name',$,IFCTEXT('Basic Wall'),$);
#201=IFCPROPERTYSINGLEVALUE('Function',$,IFCIDENTIFIER('Exterior'),$);
#202=IFCPROPERTYSINGLEVALUE('Width',$,IFCLENGTHMEASURE(290.),$);
#203=IFCPROPERTYSINGLEVALUE('Wrapping at Ends',$,IFCIDENTIFIER('None'),$);
#204=IFCPROPERTYSINGLEVALUE('Wrapping at Inserts',$,IFCIDENTIFIER('Both'),$);
#205=IFCPROPERTYSINGLEVALUE('Coarse Scale Fill Color',$,IFCINTEGER(12632256),$);
#206=IFCPROPERTYSINGLEVALUE('Coarse Scale Fill Pattern',$,IFCLABEL('<Solid fill>'),$);
#207=IFCPROPERTYSINGLEVALUE('Keynote',$,IFCTEXT('F10'),$);
#208=IFCPROPERTYSINGLEVALUE('Type Name',$,IFCTEXT('Wall-Ext_102Bwk-75Ins-100LBlk-12P'),$);
#209=IFCPROPERTYSINGLEVALUE('Structural Material',$,IFCLABEL('Concrete Masonry Units _Low Density'),$);
#210=IFCPROPERTYSINGLEVALUE('Absorptance',$,IFCREAL(0.70000000000000007),$);
#211=IFCSIUNIT(*,.MASSUNIT.,.KILO.,.GRAM.);
#212=IFCDERIVEDUNITELEMENT(#211,1);
#213=IFCSIUNIT(*,.THERMODYNAMICTEMPERATUREUNIT.,$,.KELVIN.);
#214=IFCDERIVEDUNITELEMENT(#213,-1);
#215=IFCSIUNIT(*,.TIMEUNIT.,$,.SECOND.);
#216=IFCDERIVEDUNITELEMENT(#215,-3);
#217=IFCDERIVEDUNIT((#212,#214,#216),.THERMALTRANSMITTANCEUNIT.,$);
#218=IFCPROPERTYSINGLEVALUE('Heat Transfer Coefficient (U)',$,IFCTHERMALTRANSMITTANCEMEASURE(0.23592605993668123),$);
#219=IFCPROPERTYSINGLEVALUE('Roughness',$,IFCINTEGER(3),$);
#220=IFCDERIVEDUNITELEMENT(#215,-2);
#221=IFCDERIVEDUNIT((#212,#214,#220),.USERDEFINED.,'Heat Capacity Per Area');
#222=IFCPROPERTYSINGLEVALUE('Thermal Mass',$,IFCREAL(300303.),#221);
#223=IFCDERIVEDUNITELEMENT(#211,-1);
#224=IFCDERIVEDUNITELEMENT(#215,3);
#225=IFCDERIVEDUNITELEMENT(#213,1);
#226=IFCDERIVEDUNIT((#223,#224,#225),.THERMALRESISTANCEUNIT.,$);
#227=IFCPROPERTYSINGLEVALUE('Thermal Resistance (R)',$,IFCTHERMALRESISTANCEMEASURE(4.2386161167120919),$);
#228=IFCPROPERTYSET('2gkkd_byGXCNGPPowmnQ22',#18,'Other',$,(#177,#178,#179,#180,#181));
#229=IFCPROPERTYSET('1A1kUCNfNeEk$Hwd5yn9yB',#18,'Constraints',$,(#182,#183,#184,#185,#186,#187,#188,#189,#190,#191,#192));
#230=IFCPROPERTYSET('3C1GfqLtLF$QztbziwKPNN',#18,'Dimensions',$,(#193,#194,#195));
#231=IFCPROPERTYSET('1on51KdPXrXViuADfyoaG8',#18,'Phasing',$,(#196));
#232=IFCPROPERTYSET('0v5vVDgbXN0oMYi_Lv1HtP',#18,'Structural',$,(#197,#198));
#233=IFCPROPERTYSET('2JtlyzGgtNuaJ0eJmJhWj5',#18,'Cross-Section Definition',$,(#199));
#234=IFCPROPERTYSET('2QNmymy34NDBfebrYi1BAk',#18,'Other',$,(#177,#200));
#235=IFCPROPERTYSET('03JhIzmyudKEfJ8dFmKvDR',#18,'Construction',$,(#201,#202,#203,#204));
#236=IFCPROPERTYSET('0TM7kZ_B1eT0kRbiRTTwP2',#18,'Graphics',$,(#205,#206));
#237=IFCPROPERTYSET('08mp5NerviQGuLAVQQxgvA',#18,'Identity Data',$,(#207,#208));
#238=IFCPROPERTYSET('13Nwz_5KyKlQK4H7uK6u8A',#18,'Materials and Finishes',$,(#209));
#239=IFCPROPERTYSET('10TO42Jqwhty6MAIoIQqSM',#18,'Analytical Properties',$,(#210,#218,#219,#222,#227));
#240=IFCPROPERTYSINGLEVALUE('ThermalTransmittance',$,IFCTHERMALTRANSMITTANCEMEASURE(0.23592605993668123),$);
#241=IFCPROPERTYSET('3orq6BN_LwRCX23Dley2E6',#18,'Pset_WallCommon',$,(#240));
#242=IFCCARTESIANPOINT((-4731.2113861563539,-3983.4581022105012,0.));
#243=IFCAXIS2PLACEMENT3D(#242,#9,#7);
#244=IFCLOCALPLACEMENT(#38,#243);
#245=IFCCARTESIANPOINT((8600.,0.));
#246=IFCPOLYLINE((#4,#245));
#247=IFCSHAPEREPRESENTATION(#25,'Axis','Curve2D',(#246));
#248=IFCPRODUCTDEFINITIONSHAPE($,$,(#247,#255));
#249=IFCCARTESIANPOINT((4300.,0.));
#250=IFCAXIS2PLACEMENT2D(#249,#12);
#251=IFCRECTANGLEPROFILEDEF(.AREA.,$,#250,8600.,290.00000000000011);
#252=IFCAXIS2PLACEMENT3D(#3,$,$);
#253=IFCEXTRUDEDAREASOLID(#251,#252,#9,7999.9999999999991);
#254=IFCSTYLEDITEM(#253,(#70),$);
#255=IFCSHAPEREPRESENTATION(#26,'Body','SweptSolid',(#253));
#256=IFCWALLSTANDARDCASE('1e7htQ4TP11O04_tf0ndmQ',#18,'Basic Wall:Wall-Ext_102Bwk-75Ins-100LBlk-12P:314356',$,'Basic Wall:Wall-Ext_102Bwk-75Ins-100LBlk-12P',#244,#248,'314356');
#257=IFCQUANTITYLENGTH('Height',$,$,7999.9999999999991);
#258=IFCQUANTITYLENGTH('Length',$,$,8600.);
#259=IFCQUANTITYLENGTH('Width',$,$,290.);
#260=IFCQUANTITYAREA('GrossFootprintArea',$,$,2.4940000000000011);
#261=IFCQUANTITYVOLUME('GrossVolume',$,$,19.952000000000002);
#262=IFCQUANTITYAREA('GrossSideArea',$,$,68.799999999999997);
#263=IFCQUANTITYAREA('NetSideArea',$,$,68.799999999999997);
#264=IFCQUANTITYVOLUME('NetVolume',$,$,19.952000000000016);
#265=IFCELEMENTQUANTITY('03y0l8WKHKF70NfX4XEA8Q',#18,'BaseQuantities',$,$,(#257,#258,#259,#260,#261,#262,#263,#264));
#266=IFCRELDEFINESBYPROPERTIES('2h5Mr1A0W1$eP$uBHgn25j',#18,$,$,(#256),#265);
#267=IFCMATERIALLAYERSETUSAGE(#163,.AXIS2.,.NEGATIVE.,145.);
#268=IFCPROPERTYSET('1tcRqQOQ1jTkVGYAJWrELL',#18,'Pset_QuantityTakeOff',$,(#166));
#269=IFCPROPERTYSINGLEVALUE('Reference',$,IFCLABEL('Wall-Ext_102Bwk-75Ins-100LBlk-12P'),$);
#270=IFCPROPERTYSET('2RegCY78PgvPJQjjOr3Q4d',#18,'Pset_ReinforcementBarPitchOfWall',$,(#269));
#271=IFCPROPERTYSET('0zB5kL8H3afftCr2QWwR9U',#18,'Pset_WallCommon',$,(#166,#170,#171,#172));
#272=IFCRELDEFINESBYPROPERTIES('39faaK8VjhtBfPU5Rb0g20',#18,$,$,(#256),#268);
#273=IFCRELDEFINESBYPROPERTIES('3xrXIAx7G$$bKFIcnJZ5xH',#18,$,$,(#256),#270);
#274=IFCRELDEFINESBYPROPERTIES('1fHGc2367UwcqYtD0A03fM',#18,$,$,(#256),#271);
#275=IFCPROPERTYSINGLEVALUE('Unconnected Height',$,IFCLENGTHMEASURE(7999.9999999999991),$);
#276=IFCPROPERTYSINGLEVALUE('Area',$,IFCAREAMEASURE(68.799999999999997),$);
#277=IFCPROPERTYSINGLEVALUE('Length',$,IFCLENGTHMEASURE(8600.),$);
#278=IFCPROPERTYSINGLEVALUE('Volume',$,IFCVOLUMEMEASURE(19.952000000000016),$);
#279=IFCPROPERTYSET('0fWm3ZLdsEUkt__WMNmMa6',#18,'Other',$,(#177,#178,#179,#180,#181));
#280=IFCPROPERTYSET('1mkItyXu__ymvDpfpvzFBN',#18,'Constraints',$,(#182,#183,#184,#185,#186,#187,#188,#189,#190,#191,#275));
#281=IFCPROPERTYSET('0RJfYB2MZTGEusxVAIKsDQ',#18,'Dimensions',$,(#276,#277,#278));
#282=IFCPROPERTYSET('1KFnMo2oFqO9i_gOd9BPah',#18,'Phasing',$,(#196));
#283=IFCPROPERTYSET('0VUd6msRq8gT_99w132_O_',#18,'Structural',$,(#197,#198));
#284=IFCPROPERTYSET('2qXItwewEchWOLmo6g3Vl1',#18,'Cross-Section Definition',$,(#199));
#285=IFCCARTESIANPOINT((4913.7886138436461,-3838.4581022105017,0.));
#286=IFCAXIS2PLACEMENT3D(#285,#9,#6);
#287=IFCLOCALPLACEMENT(#38,#286);
#288=IFCCARTESIANPOINT((9500.,0.));
#289=IFCPOLYLINE((#4,#288));
#290=IFCSHAPEREPRESENTATION(#25,'Axis','Curve2D',(#289));
#291=IFCPRODUCTDEFINITIONSHAPE($,$,(#290,#298));
#292=IFCCARTESIANPOINT((4750.,0.));
#293=IFCAXIS2PLACEMENT2D(#292,#12);
#294=IFCRECTANGLEPROFILEDEF(.AREA.,$,#293,9500.,290.00000000000011);
#295=IFCAXIS2PLACEMENT3D(#3,$,$);
#296=IFCEXTRUDEDAREASOLID(#294,#295,#9,7999.9999999999991);
#297=IFCSTYLEDITEM(#296,(#70),$);
#298=IFCSHAPEREPRESENTATION(#26,'Body','SweptSolid',(#296));
#299=IFCWALLSTANDARDCASE('1e7htQ4TP11O04_tf0ndmR',#18,'Basic Wall:Wall-Ext_102Bwk-75Ins-100LBlk-12P:314357',$,'Basic Wall:Wall-Ext_102Bwk-75Ins-100LBlk-12P',#287,#291,'314357');
#300=IFCQUANTITYLENGTH('Height',$,$,7999.9999999999991);
#301=IFCQUANTITYLENGTH('Length',$,$,9500.);
#302=IFCQUANTITYLENGTH('Width',$,$,290.);
#303=IFCQUANTITYAREA('GrossFootprintArea',$,$,2.7550000000000008);
#304=IFCQUANTITYVOLUME('GrossVolume',$,$,22.039999999999996);
#305=IFCQUANTITYAREA('GrossSideArea',$,$,75.999999999999986);
#306=IFCQUANTITYAREA('NetSideArea',$,$,75.999999999999986);
#307=IFCQUANTITYVOLUME('NetVolume',$,$,22.039999999999981);
#308=IFCELEMENTQUANTITY('0JL6pit9Ii25JiT$FO2CED',#18,'BaseQuantities',$,$,(#300,#301,#302,#303,#304,#305,#306,#307));
#309=IFCRELDEFINESBYPROPERTIES('05myuo$jD43n0rk3zqlIXz',#18,$,$,(#299),#308);
#310=IFCMATERIALLAYERSETUSAGE(#163,.AXIS2.,.NEGATIVE.,145.);
#311=IFCPROPERTYSET('2BATlm_HaDvAu5lCZodP84',#18,'Pset_QuantityTakeOff',$,(#166));
#312=IFCPROPERTYSINGLEVALUE('Reference',$,IFCLABEL('Wall-Ext_102Bwk-75Ins-100LBlk-12P'),$);
#313=IFCPROPERTYSET('2Rz9kVf_xIRGARfexaQq4Q',#18,'Pset_ReinforcementBarPitchOfWall',$,(#312));
#314=IFCPROPERTYSET('3O9Wv8YFGW7pCRP1WQoioC',#18,'Pset_WallCommon',$,(#166,#170,#171,#172));
#315=IFCRELDEFINESBYPROPERTIES('1FDX1cYtYa47o4XnV$0EX8',#18,$,$,(#299),#311);
#316=IFCRELDEFINESBYPROPERTIES('2ANLGFxBBbGPthpEW_1iuo',#18,$,$,(#299),#313);
#317=IFCRELDEFINESBYPROPERTIES('0zDzyuBIjJCh6_83KDl8md',#18,$,$,(#299),#314);
#318=IFCPROPERTYSINGLEVALUE('Unconnected Height',$,IFCLENGTHMEASURE(7999.9999999999991),$);
#319=IFCPROPERTYSINGLEVALUE('Length',$,IFCLENGTHMEASURE(9500.),$);
#320=IFCPROPERTYSINGLEVALUE('Volume',$,IFCVOLUMEMEASURE(22.039999999999981),$);
#321=IFCPROPERTYSET('0rLdcTFmj_kfDAV1OZ92wY',#18,'Other',$,(#177,#178,#179,#180,#181));
#322=IFCPROPERTYSET('18VXijSksjbI2rgDmc1nOF',#18,'Constraints',$,(#182,#183,#184,#185,#186,#187,#188,#189,#190,#191,#318));
#323=IFCPROPERTYSET('2Aj8IHS$32uQM7GUVm8Kpk',#18,'Dimensions',$,(#193,#319,#320));
#324=IFCPROPERTYSET('2eY7AnIvVpH6H79KvIFFlA',#18,'Phasing',$,(#196));
#325=IFCPROPERTYSET('3csxJEW9YFBzn57CWBYe1u',#18,'Structural',$,(#197,#198));
#326=IFCPROPERTYSET('2VX6mfbUxKi27tIQzYaRXc',#18,'Cross-Section Definition',$,(#199));
#327=IFCCARTESIANPOINT((4768.788613843647,4906.5418977894988,0.));
#328=IFCAXIS2PLACEMENT3D(#327,#9,#8);
#329=IFCLOCALPLACEMENT(#38,#328);
#330=IFCCARTESIANPOINT((8600.,0.));
#331=IFCPOLYLINE((#4,#330));
#332=IFCSHAPEREPRESENTATION(#25,'Axis','Curve2D',(#331));
#333=IFCPRODUCTDEFINITIONSHAPE($,$,(#332,#340));
#334=IFCCARTESIANPOINT((4300.,-2.7000623958883807E-013));
#335=IFCAXIS2PLACEMENT2D(#334,#12);
#336=IFCRECTANGLEPROFILEDEF(.AREA.,$,#335,8600.,289.99999999999955);
#337=IFCAXIS2PLACEMENT3D(#3,$,$);
#338=IFCEXTRUDEDAREASOLID(#336,#337,#9,7999.9999999999991);
#339=IFCSTYLEDITEM(#338,(#70),$);
#340=IFCSHAPEREPRESENTATION(#26,'Body','SweptSolid',(#338));
#341=IFCWALLSTANDARDCASE('1e7htQ4TP11O04_tf0ndmO',#18,'Basic Wall:Wall-Ext_102Bwk-75Ins-100LBlk-12P:314358',$,'Basic Wall:Wall-Ext_102Bwk-75Ins-100LBlk-12P',#329,#333,'314358');
#342=IFCQUANTITYLENGTH('Height',$,$,7999.9999999999991);
#343=IFCQUANTITYLENGTH('Length',$,$,8600.);
#344=IFCQUANTITYLENGTH('Width',$,$,290.);
#345=IFCQUANTITYAREA('GrossFootprintArea',$,$,2.4939999999999962);
#346=IFCQUANTITYVOLUME('GrossVolume',$,$,19.952000000000005);
#347=IFCQUANTITYAREA('GrossSideArea',$,$,68.800000000000011);
#348=IFCQUANTITYAREA('NetSideArea',$,$,68.799999999999997);
#349=IFCQUANTITYVOLUME('NetVolume',$,$,19.952000000000005);
#350=IFCELEMENTQUANTITY('0Op_WyP1a6LBSpbo_gAlUx',#18,'BaseQuantities',$,$,(#342,#343,#344,#345,#346,#347,#348,#349));
#351=IFCRELDEFINESBYPROPERTIES('2T6RZesfbaX0eY7YeWm9C_',#18,$,$,(#341),#350);
#352=IFCMATERIALLAYERSETUSAGE(#163,.AXIS2.,.NEGATIVE.,145.);
#353=IFCPROPERTYSET('32GMcnIi4NsGkGkN7ukg_j',#18,'Pset_QuantityTakeOff',$,(#166));
#354=IFCPROPERTYSINGLEVALUE('Reference',$,IFCLABEL('Wall-Ext_102Bwk-75Ins-100LBlk-12P'),$);
#355=IFCPROPERTYSET('0idEFRTD8vEdEVy4Cbdgs8',#18,'Pset_ReinforcementBarPitchOfWall',$,(#354));
#356=IFCPROPERTYSET('0BqOHQ2DM4fz_7NMRvp90A',#18,'Pset_WallCommon',$,(#166,#170,#171,#172));
#357=IFCRELDEFINESBYPROPERTIES('0M1l6mfHWTUm96oKiONnwq',#18,$,$,(#341),#353);
#358=IFCRELDEFINESBYPROPERTIES('1XzBhNpjznTDwAfAhettwL',#18,$,$,(#341),#355);
#359=IFCRELDEFINESBYPROPERTIES('2sgRRWkXy_X4sGCEUEiJ0F',#18,$,$,(#341),#356);
#360=IFCPROPERTYSINGLEVALUE('Unconnected Height',$,IFCLENGTHMEASURE(7999.9999999999991),$);
#361=IFCPROPERTYSINGLEVALUE('Area',$,IFCAREAMEASURE(68.799999999999997),$);
#362=IFCPROPERTYSINGLEVALUE('Length',$,IFCLENGTHMEASURE(8600.),$);
#363=IFCPROPERTYSINGLEVALUE('Volume',$,IFCVOLUMEMEASURE(19.952000000000005),$);
#364=IFCPROPERTYSET('1n2G_ksc5vgtotnByTYb1P',#18,'Other',$,(#177,#178,#179,#180,#181));
#365=IFCPROPERTYSET('3TzvgTTz6G75gCYi7M50P_',#18,'Constraints',$,(#182,#183,#184,#185,#186,#187,#188,#189,#190,#191,#360));
#366=IFCPROPERTYSET('3mtMC15wnTTy71jeRYsPl$',#18,'Dimensions',$,(#361,#362,#363));
#367=IFCPROPERTYSET('1ao99OHUQEznP6xuZ0VrEK',#18,'Phasing',$,(#196));
#368=IFCPROPERTYSET('2aKxmQSVfmFjnFQ0kdT3eL',#18,'Structural',$,(#197,#198));
#369=IFCPROPERTYSET('1kh26UCWDm$Zd0aDs99viV',#18,'Cross-Section Definition',$,(#199));
#370=IFCPROPERTYSINGLEVALUE('Name',$,IFCLABEL('Level 0'),$);
#371=IFCPROPERTYSET('3pajDo1QSo$Zr5kcJ7WZvz',#18,'Pset_AirSideSystemInformation',$,(#370));
#372=IFCPROPERTYSINGLEVALUE('AboveGround',$,IFCLOGICAL(.U.),$);
#373=IFCPROPERTYSET('2QFFSloDKLdASEirlNrsWG',#18,'Pset_BuildingStoreyCommon',$,(#372));
#374=IFCPROPERTYSINGLEVALUE('Name',$,IFCLABEL('Level 0'),$);
#375=IFCPROPERTYSET('0Jn3ZcoXbsSExgN1KMPBrd',#18,'Pset_ProductRequirements',$,(#374));
#376=IFCRELDEFINESBYPROPERTIES('1Da_uB3ifLZAiBs8ApqL8T',#18,$,$,(#39),#371);
#377=IFCRELDEFINESBYPROPERTIES('24vWbHxUvnwTMhwrnGQFQP',#18,$,$,(#39),#373);
#378=IFCRELDEFINESBYPROPERTIES('3dNMqG5qInx8MCGyv3CU_c',#18,$,$,(#39),#375);
#379=IFCPROPERTYSINGLEVALUE('Category',$,IFCLABEL('Levels'),$);
#380=IFCPROPERTYSINGLEVALUE('Family',$,IFCLABEL('Level'),$);
#381=IFCPROPERTYSINGLEVALUE('Family and Type',$,IFCLABEL('Level: Circle Head - Project Datum'),$);
#382=IFCPROPERTYSINGLEVALUE('Type',$,IFCLABEL('Circle Head - Project Datum'),$);
#383=IFCPROPERTYSINGLEVALUE('Type Id',$,IFCLABEL('305'),$);
#384=IFCPROPERTYSINGLEVALUE('Elevation',$,IFCLENGTHMEASURE(0.),$);
#385=IFCPROPERTYSINGLEVALUE('Computation Height',$,IFCLENGTHMEASURE(0.),$);
#386=IFCPROPERTYSINGLEVALUE('Building Story',$,IFCBOOLEAN(.T.),$);
#387=IFCPROPERTYSINGLEVALUE('Name',$,IFCTEXT('Level 0'),$);
#388=IFCPROPERTYSINGLEVALUE('Family Name',$,IFCTEXT('Level'),$);
#389=IFCPROPERTYSINGLEVALUE('Elevation Base',$,IFCIDENTIFIER('Project Base Point'),$);
#390=IFCPROPERTYSINGLEVALUE('Color',$,IFCINTEGER(0),$);
#391=IFCPROPERTYSINGLEVALUE('Line Pattern',$,IFCLABEL('Centre'),$);
#392=IFCPROPERTYSINGLEVALUE('Line Weight',$,IFCIDENTIFIER('1'),$);
#393=IFCPROPERTYSINGLEVALUE('Symbol',$,IFCLABEL('Anno_Level_Head_Circle : Standard'),$);
#394=IFCPROPERTYSINGLEVALUE('Symbol at End 1 Default',$,IFCBOOLEAN(.T.),$);
#395=IFCPROPERTYSINGLEVALUE('Symbol at End 2 Default',$,IFCBOOLEAN(.F.),$);
#396=IFCPROPERTYSINGLEVALUE('Type Name',$,IFCTEXT('Circle Head - Project Datum'),$);
#397=IFCPROPERTYSET('0HHtaL1rG40J8hYllmlo2X',#18,'Other',$,(#379,#380,#381,#382,#383));
#398=IFCPROPERTYSET('0jW5y7yS9DBz2dx2sPeSIr',#18,'Constraints',$,(#384));
#399=IFCPROPERTYSET('0xBbxa3AM6sCv6QOiUfv_q',#18,'Dimensions',$,(#385));
#400=IFCPROPERTYSET('3epwOoF5smDrBDyAaD3_7q',#18,'Identity Data',$,(#197,#386,#387));
#401=IFCPROPERTYSET('0RebOt7$8TnRMn9KtqamA_',#18,'Other(Type)',$,(#379,#388));
#402=IFCPROPERTYSET('0S3CFhDI5J0$qg$oGL0KnP',#18,'Constraints(Type)',$,(#389));
#403=IFCPROPERTYSET('3m99yqLvx3CSiObwBDgW2h',#18,'Graphics(Type)',$,(#390,#391,#392,#393,#394,#395));
#404=IFCPROPERTYSET('3LJlar30C_0K7oBcb8$a0g',#18,'Identity Data(Type)',$,(#396));
#405=IFCRELCONTAINEDINSPATIALSTRUCTURE('3Zu5Bv0LOHrPC10066FoQQ',#18,$,$,(#73,#256,#299,#341),#39);
#406=IFCPROPERTYSINGLEVALUE('Name',$,IFCLABEL('Level 1'),$);
#407=IFCPROPERTYSET('2mTLlmyrfKDEBBLtdwqw7L',#18,'Pset_AirSideSystemInformation',$,(#406));
#408=IFCPROPERTYSET('2y6jqut2mGsxPM5c1zUPr2',#18,'Pset_BuildingStoreyCommon',$,(#372));
#409=IFCPROPERTYSINGLEVALUE('Name',$,IFCLABEL('Level 1'),$);
#410=IFCPROPERTYSET('1NhGbMdWc6$OcOXv1TJ_Wu',#18,'Pset_ProductRequirements',$,(#409));
#411=IFCRELDEFINESBYPROPERTIES('16d15dL922K3ec_Ua5xAkw',#18,$,$,(#43),#407);
#412=IFCRELDEFINESBYPROPERTIES('03h9WtlPXy$ENv9AiS5UZC',#18,$,$,(#43),#408);
#413=IFCRELDEFINESBYPROPERTIES('0ZduuN29N$9gX6yyEYBAf0',#18,$,$,(#43),#410);
#414=IFCPROPERTYSINGLEVALUE('Elevation',$,IFCLENGTHMEASURE(3999.9999999999995),$);
#415=IFCPROPERTYSINGLEVALUE('Name',$,IFCTEXT('Level 1'),$);
#416=IFCPROPERTYSET('3qDK9WhR9e4D3_PlqIJ19r',#18,'Other',$,(#379,#380,#381,#382,#383));
#417=IFCPROPERTYSET('0iUz_nPodmYNcychWky3pN',#18,'Constraints',$,(#414));
#418=IFCPROPERTYSET('0$i1dxTB7pN8LElYkEbWrL',#18,'Dimensions',$,(#385));
#419=IFCPROPERTYSET('2Eq08$eC1$FjhTfa4cOqA2',#18,'Identity Data',$,(#197,#386,#415));
#420=IFCRELAGGREGATES('1tOvF9sPyAHxDEaE8WrUOY',#18,$,$,#31,(#46));
#421=IFCRELAGGREGATES('3Iu$P5NsLFQ8eauRgiNCme',#18,$,$,#46,(#36));
#422=IFCRELAGGREGATES('2$1LAsj$T3CPRLiPj39tWH',#18,$,$,#36,(#39,#43));
#423=IFCPROPERTYSINGLEVALUE('NumberOfStoreys',$,IFCINTEGER(1),$);
#424=IFCPROPERTYSINGLEVALUE('IsLandmarked',$,IFCLOGICAL(.U.),$);
#425=IFCPROPERTYSET('0KOqS4V8yH5uZCBba3exPE',#18,'Pset_BuildingCommon',$,(#423,#424));
#426=IFCRELDEFINESBYPROPERTIES('1sTf3l6c$mExw6k4EZOjCF',#18,$,$,(#36),#425);
#427=IFCRELASSOCIATESMATERIAL('16cqUoG7Ybqa9jQfjdR3$k',#18,$,$,(#73),#164);
#428=IFCRELASSOCIATESMATERIAL('1jfSowI_er8QNiF0b4jLGW',#18,$,$,(#256),#267);
#429=IFCRELASSOCIATESMATERIAL('0Yp6xjiaVIUskThe$lSz26',#18,$,$,(#299),#310);
#430=IFCRELASSOCIATESMATERIAL('1gZxSlY$eExKe2A7xXsl16',#18,$,$,(#341),#352);
#431=IFCRELASSOCIATESMATERIAL('1hsUfmxBvWKZQp0bDaQRX5',#18,$,$,(#165),#163);
#432=IFCRELDEFINESBYTYPE('0gcPovOn7QcR6iCsNwgUL8',#18,$,$,(#73,#256,#299,#341),#165);
#433=IFCRELDEFINESBYPROPERTIES('0W_Qi41tq3vq6iRI8FP0TY',#18,$,$,(#39),#397);
#434=IFCRELDEFINESBYPROPERTIES('1scNAmMvMqlpd4YitAJJxc',#18,$,$,(#39),#398);
#435=IFCRELDEFINESBYPROPERTIES('020XmbQigBIWjCX38xbaLp',#18,$,$,(#39),#399);
#436=IFCRELDEFINESBYPROPERTIES('2IlSxOcisKV49aCk9_SFus',#18,$,$,(#39),#400);
#437=IFCRELDEFINESBYPROPERTIES('2qrhh3swzX1ueMrKdj$BAP',#18,$,$,(#43),#416);
#438=IFCRELDEFINESBYPROPERTIES('3UHb5la$KD73yZv57ZwTtZ',#18,$,$,(#43),#417);
#439=IFCRELDEFINESBYPROPERTIES('3A1vJ7JXhk9cmadU0oGFnZ',#18,$,$,(#43),#418);
#440=IFCRELDEFINESBYPROPERTIES('20xTH95MYr_rfYX0ljVOpr',#18,$,$,(#43),#419);
#441=IFCRELDEFINESBYPROPERTIES('1pLY4gGcHcUnj4fxlEFSrD',#18,$,$,(#36,#46),#54);
#442=IFCRELDEFINESBYPROPERTIES('21E2PSikOJAfw$zKD$raOJ',#18,$,$,(#73),#228);
#443=IFCRELDEFINESBYPROPERTIES('06eeonxXOoc6ticpyIal3m',#18,$,$,(#73),#229);
#444=IFCRELDEFINESBYPROPERTIES('2eliUdek_95mzRXKzoCt5j',#18,$,$,(#73),#230);
#445=IFCRELDEFINESBYPROPERTIES('0LXKDBoi0LPkOitOH5fEL4',#18,$,$,(#73),#231);
#446=IFCRELDEFINESBYPROPERTIES('1p$VqI14iDrWRHrisEQZ1a',#18,$,$,(#73),#232);
#447=IFCRELDEFINESBYPROPERTIES('0H7OrgERRlwaC3QWQz$B3B',#18,$,$,(#73),#233);
#448=IFCRELDEFINESBYPROPERTIES('3qGUI$SNrXZKkVGkN3qtqz',#18,$,$,(#256),#279);
#449=IFCRELDEFINESBYPROPERTIES('3Usty2k6qOrQPDdY2LEoD3',#18,$,$,(#256),#280);
#450=IFCRELDEFINESBYPROPERTIES('18aq3sjG_8KCbUEC2uuwFU',#18,$,$,(#256),#281);
#451=IFCRELDEFINESBYPROPERTIES('2F9GnkEXSOX5FoySu2A0s9',#18,$,$,(#256),#282);
#452=IFCRELDEFINESBYPROPERTIES('3ZRWxKq0$bRF6tJyCulhV8',#18,$,$,(#256),#283);
#453=IFCRELDEFINESBYPROPERTIES('2_h5jkm$Y8a2rTU_v9204X',#18,$,$,(#256),#284);
#454=IFCRELDEFINESBYPROPERTIES('0whRmLHFGvQu71fKjnG_ps',#18,$,$,(#299),#321);
#455=IFCRELDEFINESBYPROPERTIES('0sLT_uL50VZYszhocotskm',#18,$,$,(#299),#322);
#456=IFCRELDEFINESBYPROPERTIES('2VHdcy9$qHhtTL0MbuLvzN',#18,$,$,(#299),#323);
#457=IFCRELDEFINESBYPROPERTIES('0$BuiR7kIUtohuGYILOcl0',#18,$,$,(#299),#324);
#458=IFCRELDEFINESBYPROPERTIES('1iJVQvxxC0DxYZ2pDrLLLJ',#18,$,$,(#299),#325);
#459=IFCRELDEFINESBYPROPERTIES('3b6il9WSBhhwgwJx4pFtoP',#18,$,$,(#299),#326);
#460=IFCRELDEFINESBYPROPERTIES('2y5oEnCPG0m1bBOdyIDeAP',#18,$,$,(#341),#364);
#461=IFCRELDEFINESBYPROPERTIES('3Kj_dXC2BynjGAKPtep9Fz',#18,$,$,(#341),#365);
#462=IFCRELDEFINESBYPROPERTIES('15dkZIbo7rZhiUapb_ti5L',#18,$,$,(#341),#366);
#463=IFCRELDEFINESBYPROPERTIES('31bnnjAOfSjeC5PijD8qzD',#18,$,$,(#341),#367);
#464=IFCRELDEFINESBYPROPERTIES('39N_mmhv5_flsDeoIHpi3Y',#18,$,$,(#341),#368);
#465=IFCRELDEFINESBYPROPERTIES('3MytN0wuiACMI7gyog1jKK',#18,$,$,(#341),#369);
#466=IFCRELDEFINESBYPROPERTIES('1YbdlahgqIYD0TFGVYPQjB',#18,$,$,(#39,#43),#401);
#467=IFCRELDEFINESBYPROPERTIES('1edevBTiIkusLo8p2QTcoi',#18,$,$,(#39,#43),#402);
#468=IFCRELDEFINESBYPROPERTIES('1GT0CZ$P94uVYOnvnMlfzg',#18,$,$,(#39,#43),#403);
#469=IFCRELDEFINESBYPROPERTIES('35sqGsjCyUtvdKtmpJcRvg',#18,$,$,(#39,#43),#404);
#470=IFCRELCONNECTSPATHELEMENTS('3XBfyx6SdI$$t4dF2ifyBc',#18,'1e7htQ4TP11O04_tf0ndmT|1e7htQ4TP11O04_tf0ndmQ','Structural',$,#73,#256,(),(),.ATEND.,.ATSTART.);
#471=IFCRELCONNECTSPATHELEMENTS('0$Q3godWNtkW8Ej3FZSAPR',#18,'1e7htQ4TP11O04_tf0ndmT|1e7htQ4TP11O04_tf0ndmO','Structural',$,#73,#341,(),(),.ATSTART.,.ATEND.);
#472=IFCRELCONNECTSPATHELEMENTS('0A1fWHDlCTK1RrxFzlxCOX',#18,'1e7htQ4TP11O04_tf0ndmQ|1e7htQ4TP11O04_tf0ndmR','Structural',$,#256,#299,(),(),.ATEND.,.ATSTART.);
#473=IFCRELCONNECTSPATHELEMENTS('1NjOFYfT2lAkPrhpEErc3x',#18,'1e7htQ4TP11O04_tf0ndmR|1e7htQ4TP11O04_tf0ndmO','Structural',$,#299,#341,(),(),.ATEND.,.ATSTART.);
#474=IFCPRESENTATIONLAYERASSIGNMENT('A-WALL-____-OTLN',$,(#60,#72,#247,#255,#290,#298,#332,#340),$);
#475=IFCUNITASSIGNMENT((#19,#20,#21,#217,#221,#226));
ENDSEC;

END-ISO-10303-21;